<svg width="213" height="48" viewBox="0 0 213 48" fill="none" xmlns="http://www.w3.org/2000/svg">
<path d="M52.9958 11.6921C53.4434 10.741 53.7231 9.73402 53.4434 8.72703C53.2196 7.83192 52.4364 7.04871 51.5972 6.6571C50.2546 6.04171 48.8 6.09766 47.3455 6.26549C46.4504 6.37738 45.6112 6.60116 44.7721 6.88088C44.1007 7.10465 43.5972 7.83192 43.821 8.50325C43.877 8.67109 43.9889 8.83892 44.1007 8.95081C44.4364 9.34241 44.9399 9.56619 45.4434 9.39836C45.891 9.28647 46.2826 9.11864 46.7301 9.06269C47.0098 9.00675 47.2896 8.89486 47.5693 8.83892C47.6252 8.83892 47.6812 8.83892 47.793 8.78297H47.849C47.849 8.78297 47.849 8.78297 47.9049 8.78297C47.9609 8.78297 48.0728 8.78297 48.1287 8.78297C48.2406 8.78297 48.3525 8.78297 48.4644 8.78297H48.5203C48.9679 8.78297 49.4154 8.78297 49.807 8.89486C49.9189 8.89486 49.9749 8.95081 50.0868 8.95081C50.1427 8.95081 50.1427 8.95081 50.1986 9.00675C50.1986 9.00675 50.1986 9.00675 50.2546 9.00675C50.3105 9.00675 50.3665 9.06269 50.4224 9.11864C50.4784 9.17458 50.4784 9.17458 50.5343 9.23053C50.5903 9.34241 50.6462 9.4543 50.6462 9.56619V9.62213C50.6462 9.73402 50.5903 9.84591 50.5903 9.9578C50.5903 10.0137 50.5903 10.0137 50.5343 10.0697C50.4784 10.1816 50.4224 10.2935 50.3665 10.4054C50.3665 10.4054 50.3665 10.4613 50.3105 10.4613C50.1986 10.6291 50.1427 10.8529 50.0308 11.0207C49.807 11.3564 49.5833 11.6921 49.3595 12.0277C49.3595 12.0277 49.3035 12.0837 49.3035 12.1396L49.2476 12.1956C49.2476 12.1956 49.1917 12.2515 49.1917 12.3074C49.0238 12.5312 48.856 12.6991 48.6882 12.9228C48.4084 13.2585 48.1287 13.5942 47.793 13.9298C47.4574 14.2655 47.1217 14.6571 46.7861 14.9928C46.6742 15.1047 46.5063 15.2165 46.3944 15.3844C46.0588 15.72 45.6672 16.0557 45.2756 16.3914C44.6602 16.9508 44.0448 17.5102 43.3735 18.0697C42.814 18.5732 42.1986 19.0207 41.6392 19.4683C41.3595 19.6921 41.1357 19.8599 40.856 20.0837C40.856 20.0837 40.856 20.0837 40.8 20.1396C40.8 20.1396 40.8 20.1396 40.7441 20.1396C40.6882 20.1396 40.6882 20.1956 40.6882 20.1956C40.6322 20.2515 40.5203 20.3074 40.4084 20.4193C40.2406 20.5312 40.0728 20.6991 39.9049 20.8109C39.4014 21.1466 38.8979 21.5382 38.3944 21.9298C37.5553 21.2585 36.4923 20.9228 35.3175 21.1466C33.7511 21.4263 32.4644 22.6571 32.1847 24.2235C32.0728 24.8949 32.1287 25.5662 32.2965 26.1256C29.6672 27.8599 26.9819 29.4263 24.2406 30.9928C24.6322 31.3284 24.9679 31.776 25.1916 32.2235C25.3595 32.5592 25.4154 32.8949 25.4154 33.2305V33.3424C28.1567 31.8319 31.3455 29.8739 33.9189 28.1956C34.5902 28.5872 35.3735 28.8109 36.2686 28.755C37.6112 28.6431 38.7861 27.748 39.4014 26.5732C39.849 25.734 39.9049 24.9508 39.7371 24.2235C41.9749 22.6012 44.1567 20.9228 46.2266 19.1326C46.5623 18.8529 46.842 18.5732 47.1777 18.2935C47.4014 18.1256 47.6252 17.9019 47.793 17.734C48.4644 17.1186 49.0798 16.5033 49.6951 15.8319C50.4784 14.9928 51.2616 14.0977 51.877 13.1466C52.4364 12.6431 52.7721 12.1956 52.9958 11.6921ZM36.2126 27.4683C34.814 27.4683 33.6951 26.3494 33.6951 24.9508C33.6951 23.5522 34.814 22.4333 36.2126 22.4333C37.6112 22.4333 38.7301 23.5522 38.7301 24.9508C38.7301 26.3494 37.6112 27.4683 36.2126 27.4683Z" fill="#CB3E45"/>
<path d="M18.814 33.9578C18.5902 34.0697 18.2546 34.2375 18.0308 34.2935C17.7511 34.4054 17.5273 34.5173 17.2476 34.6291C16.5203 34.9648 15.849 35.2445 15.1217 35.5802C15.0657 35.5802 15.0098 35.6361 14.9539 35.6361C14.842 35.6921 14.6741 35.748 14.5622 35.804C14.3944 35.8599 14.2266 35.9159 14.0587 36.0277C13.8909 36.0837 13.7231 36.1956 13.5553 36.2515C13.1077 36.4194 12.6601 36.5872 12.2126 36.755C10.5902 37.3704 8.91189 37.8739 7.17763 38.1536C7.06574 38.1536 6.95385 38.2096 6.84196 38.2096C6.78602 38.2096 6.67413 38.2096 6.61819 38.2096C6.56224 38.2096 6.5063 38.2096 6.45036 38.2096H6.39441C6.33847 38.2096 6.22658 38.2096 6.17063 38.2096C5.83497 38.2096 5.49931 38.2655 5.16364 38.2096C5.16364 38.2096 5.16364 38.2096 5.1077 38.2096H5.05175C5.05175 38.2096 5.05175 38.2096 4.99581 38.2096H4.93987C4.88392 38.2096 4.88392 38.2096 4.82798 38.2096C4.54826 38.1536 4.32448 37.9298 4.26854 37.6501V37.5942C4.26854 37.5942 4.26854 37.6501 4.26854 37.7061C4.26854 37.6501 4.26854 37.5942 4.26854 37.5942C4.26854 37.5382 4.26854 37.4263 4.26854 37.3704C4.38043 36.8669 4.77203 36.2515 5.16364 35.748L5.21959 35.6921C5.27553 35.6361 5.27553 35.5802 5.33147 35.5242C5.33147 35.4683 5.38742 35.4683 5.38742 35.4124C5.38742 35.4124 5.38742 35.4124 5.38742 35.4683C5.44336 35.4124 5.44336 35.4124 5.49931 35.3564C5.49931 35.3005 5.55525 35.3005 5.55525 35.2445C5.55525 35.1886 5.61119 35.1886 5.61119 35.1326C5.89091 34.797 6.11469 34.5732 6.11469 34.5732C6.28252 34.4054 6.45035 34.2935 6.56224 34.1256C6.67413 34.0138 6.84196 33.9019 7.0098 33.79C7.06574 33.734 7.12168 33.6781 7.17763 33.6221C7.23357 33.5662 7.34546 33.5103 7.34546 33.5103C7.9049 33.1187 8.24056 32.3354 7.79301 31.7201C7.45735 31.1606 6.56224 30.8249 6.0028 31.2166C4.6042 32.2795 3.31749 33.5103 2.42238 35.0208C1.807 36.0837 1.3035 37.5382 1.69511 38.769C2.25455 40.4473 4.04476 40.8949 5.66714 40.8949C7.73707 40.8389 9.807 40.2795 11.765 39.6082C12.4923 39.3844 13.2196 39.1047 13.9469 38.8249C14.6182 38.6012 15.2336 38.3215 15.9049 38.0417C16.9678 37.5942 18.0867 37.0907 19.1497 36.5872C19.4294 36.4753 19.7091 36.3075 19.9888 36.1956C19.3175 35.748 18.8699 34.9089 18.814 33.9578Z" fill="#CB3E45"/>
<path d="M56.2965 27.692C55.0658 26.8528 53.3315 27.1885 52.4923 28.4752C51.6532 29.706 51.9889 31.4402 53.2756 32.2794C54.5063 33.1186 56.2406 32.7829 57.0798 31.4962C57.863 30.2095 57.5273 28.5312 56.2965 27.692Z" fill="#CB3E45"/>
<path d="M5.27551 35.5804C5.33146 35.5245 5.33146 35.5245 5.27551 35.5804C5.33146 35.5245 5.33146 35.5244 5.33146 35.4685C5.33146 35.5244 5.27551 35.5245 5.27551 35.5804Z" fill="white"/>
<path d="M10.5902 29.7624C10.3664 29.6505 10.1986 29.5386 9.97481 29.4267C9.69509 29.2589 9.47131 29.0911 9.19159 28.9232C8.91187 28.7554 8.63215 28.5876 8.35243 28.4197C8.29648 28.3638 8.24054 28.3638 8.24054 28.3079C8.91187 31.3288 10.3105 34.4617 12.1566 36.8114C12.6042 36.6435 13.0517 36.4757 13.4993 36.3079C13.6671 36.2519 13.8349 36.196 14.0028 36.0841C12.5482 34.2939 11.3175 32.0002 10.5902 29.7624Z" fill="white"/>
<path d="M48.5203 19.4127C48.3524 18.8533 48.2406 18.2379 48.0168 17.6785C47.793 17.9022 47.5692 18.0701 47.4014 18.2379C47.1217 18.5176 46.786 18.7973 46.4503 19.0771C46.6182 19.6365 46.7301 20.2519 46.8979 20.8113C47.0657 21.6505 47.1776 22.5456 47.1776 23.3848C47.1776 23.6645 47.1776 23.9442 47.1776 24.2239C47.1776 25.6785 47.0098 27.133 46.6741 28.5876C46.4503 29.5946 46.1147 30.6015 45.6671 31.6085C44.8839 33.5106 43.765 35.189 42.3664 36.7554C42.0308 37.0911 41.6951 37.4827 41.3594 37.7624L43.5413 38.3218C43.5972 38.2099 43.7091 38.154 43.821 38.0421C45.3315 36.3638 46.5622 34.4617 47.4573 32.3918C47.9608 31.2729 48.2965 30.098 48.5762 28.9792C48.9119 27.4687 49.0797 25.9022 49.0797 24.3358C49.0797 24.0561 49.0797 23.7764 49.0797 23.4966C49.0797 22.0421 48.8559 20.6994 48.5203 19.4127Z" fill="white"/>
<path d="M38.5622 41.1191C38.2825 41.0631 37.9468 40.9513 37.6671 40.8953C37.5552 40.8394 37.3874 40.8394 37.2755 40.7834C34.6461 42.182 31.5692 42.9652 28.5482 42.9652C27.5412 42.9652 26.5902 42.9093 25.6391 42.7415C24.6321 42.5736 23.6251 42.3499 22.6741 42.0142C20.2126 41.175 17.9189 39.8324 16.0168 38.1541C15.3454 38.4338 14.73 38.7135 14.0587 38.9373C16.5762 41.4548 19.821 43.3009 23.3454 44.252C24.2965 44.4757 25.3035 44.6995 26.3105 44.8114C27.0377 44.8673 27.765 44.9233 28.4923 44.9233C29.2755 44.9233 30.0028 44.8673 30.786 44.8114C33.9748 44.4757 37.1636 43.3009 39.8489 41.5107C39.5133 41.4548 39.2335 41.3429 38.8979 41.2869C38.786 41.231 38.6741 41.175 38.5622 41.1191Z" fill="white"/>
<path d="M14.1706 4.25175C15.3454 4.25175 16.2965 3.3007 16.2965 2.12587C16.2965 0.951049 15.3454 0 14.1706 0C12.9958 0 12.0447 0.951049 12.0447 2.12587C12.0447 3.3007 12.9958 4.25175 14.1706 4.25175Z" fill="white"/>
<path d="M9.80694 24.2799C9.80694 21.0911 10.6461 17.9023 12.2125 15.1051C12.4363 14.7694 12.6041 14.4337 12.8279 14.0981C13.0517 14.154 13.2195 14.154 13.4433 14.154C14.8979 14.154 16.1286 12.9792 16.1286 11.4687C16.1286 11.0771 16.0727 10.7414 15.9048 10.4058C16.2965 10.0701 16.744 9.6785 17.1356 9.34283C17.6951 8.89528 18.3104 8.50367 18.9258 8.11206C19.2055 7.94423 19.4293 7.83234 19.709 7.66451C20.4923 7.21696 21.3314 6.88129 22.1706 6.60157C23.4014 6.15402 24.744 5.81836 26.0307 5.65052C26.4223 6.43374 27.2615 6.99318 28.2125 6.99318C29.1636 6.99318 30.0028 6.43374 30.4503 5.59458C36.2685 6.20996 41.5272 9.51067 44.5482 14.6016C44.6041 14.7135 44.6601 14.8254 44.772 14.9372L46.2265 13.5946C45.3874 12.196 44.3804 10.9093 43.2615 9.79038C39.9049 6.3778 35.3734 4.19598 30.5622 3.69248C30.2265 2.74143 29.3314 2.01416 28.2125 2.01416C27.0937 2.01416 26.1986 2.74143 25.8629 3.74843C24.3524 3.91626 22.8979 4.30787 21.4993 4.81136C20.8839 5.03514 20.2685 5.31486 19.6531 5.59458C19.0937 5.8743 18.5342 6.15402 17.9748 6.48969C17.6391 6.65752 17.3594 6.88129 17.0237 7.04913C16.1286 7.60857 15.2895 8.27989 14.5622 9.00717C14.2265 8.83934 13.8349 8.72745 13.4433 8.72745C13.2755 8.72745 13.1076 8.72745 12.9398 8.78339C11.709 9.00717 10.758 10.126 10.758 11.4128C10.758 12.0281 10.9818 12.5876 11.3174 13.0351L11.2055 12.9792C10.9818 13.3708 10.758 13.7065 10.5342 14.0981C9.97478 15.0491 9.52722 16.0561 9.13562 17.1191C9.07967 17.175 9.07967 17.2869 9.07967 17.3428C8.40834 19.2449 8.01673 21.2589 7.90485 23.3288L9.80694 24.3918C9.80694 24.3918 9.80694 24.3358 9.80694 24.2799ZM13.1076 9.90227C13.2195 9.90227 13.3314 9.84633 13.4433 9.84633C14.3384 9.84633 15.0657 10.5736 15.0657 11.4687C15.0657 12.3638 14.3384 13.0911 13.4433 13.0911C13.3314 13.0911 13.2195 13.0911 13.1076 13.0351C12.3804 12.8673 11.8209 12.2519 11.8209 11.4687C11.8209 10.6855 12.3804 10.0142 13.1076 9.90227Z" fill="white"/>
<path d="M54.8979 38.2656C54.73 36.7551 53.9468 35.5244 52.9958 34.4055C52.3804 33.7341 51.7091 33.1188 50.9818 32.5593C50.4224 32.1118 49.6391 31.9999 49.1356 32.5593C48.6881 33.0628 48.5762 33.9579 49.1356 34.4055C49.6391 34.7971 50.1426 35.2446 50.5902 35.6922C50.5902 35.6922 50.5902 35.6922 50.6461 35.7481C50.814 35.916 50.9818 36.0838 51.0937 36.2516C51.1496 36.3076 51.1496 36.3635 51.2056 36.3635C51.2615 36.4195 51.3175 36.4754 51.3734 36.5873V36.5313C51.3734 36.5313 51.3734 36.5873 51.4294 36.6432C51.4853 36.6992 51.5412 36.8111 51.5972 36.867C51.765 37.1467 51.9328 37.3705 52.0447 37.6502C52.0447 37.6502 52.0447 37.6502 52.0447 37.7062C52.0447 37.7062 52.0447 37.7062 52.0447 37.7621C52.1566 37.9859 52.2126 38.2097 52.2126 38.4334V38.4894C52.2126 38.6013 52.2126 38.6572 52.2126 38.7691V38.825C52.2126 38.881 52.2126 38.9369 52.1566 38.9929C52.0447 39.2726 51.8769 39.4964 51.5972 39.6642C51.5972 39.6642 51.5972 39.6642 51.5412 39.6642H51.4853C51.4853 39.6642 51.4853 39.6642 51.4294 39.6642H51.3734C51.2056 39.7202 51.0937 39.7761 50.9259 39.7761C50.758 39.832 50.6461 39.832 50.4783 39.888C50.4224 39.888 50.3664 39.888 50.3105 39.888C50.2545 39.888 50.1986 39.888 50.1426 39.9439H50.0867C50.0307 39.9439 50.0308 39.9439 49.9748 39.9439C49.9189 39.9439 49.8629 39.9439 49.807 39.9439C49.751 39.9439 49.6951 39.9439 49.6391 39.9439C49.1356 39.9999 48.6321 39.9999 48.0727 39.9439C47.8489 39.9439 47.6252 39.9439 47.4014 39.888C46.8419 39.832 46.2825 39.7761 45.779 39.7202C45.7231 39.7202 45.7231 39.7202 45.6671 39.7202C45.6671 39.7202 45.6671 39.7202 45.6112 39.7202C45.4993 39.7202 45.3874 39.6642 45.3314 39.6642C45.2196 39.6642 45.1077 39.6083 44.9398 39.6083C44.772 39.6083 44.6601 39.5523 44.4923 39.5523C44.4363 39.5523 44.3804 39.5523 44.3804 39.5523C44.0447 39.4964 43.7091 39.4404 43.3734 39.3845C43.2056 39.3845 43.0937 39.3285 42.9259 39.2726C42.1426 39.1048 41.3594 38.9369 40.5762 38.7691C38.8979 38.3775 37.2196 37.874 35.5972 37.3705C35.4853 37.3146 35.3175 37.3146 35.2056 37.2586C33.0238 36.5873 30.786 35.8041 28.6601 35.0209V34.9649C28.6601 34.9649 28.6601 34.9649 28.6042 35.0209C27.821 34.7411 26.9818 34.4055 26.1986 34.0698C25.8629 33.9579 25.5832 33.7901 25.2475 33.6782C25.2475 33.6223 25.2475 33.6223 25.2475 33.6223C25.2475 33.5104 25.2475 33.3985 25.2475 33.2866C25.0797 31.6642 23.737 30.3775 22.0587 30.3775C21.1636 30.3775 20.3804 30.7132 19.765 31.3285C19.6531 31.2726 19.5412 31.2167 19.4293 31.1607C18.0307 30.4894 16.6321 29.8181 15.2895 29.1467C13.6112 28.2516 11.9888 27.3565 10.3664 26.3495C9.69508 25.902 9.02375 25.4544 8.35242 25.0069C8.18459 24.895 8.01676 24.7831 7.84893 24.6712C7.62515 24.5034 7.34543 24.3355 7.12165 24.1118C7.06571 24.0558 6.95382 23.9999 6.89788 23.9439H6.84193H6.78599C6.73005 23.888 6.6741 23.832 6.61816 23.832C6.22655 23.4964 5.779 23.1607 5.38739 22.825C4.772 22.2656 4.15662 21.6502 3.59718 20.9789C3.54123 20.9229 3.54123 20.9229 3.48529 20.867C3.14963 20.4754 2.98179 20.0838 2.81396 19.8041C2.81396 19.8041 2.81396 19.8041 2.81396 19.7481C2.59019 19.1887 2.64613 18.853 2.64613 18.7971C2.64613 18.7411 2.64613 18.7411 2.70207 18.6852C2.75802 18.6292 2.75802 18.5733 2.81396 18.4614C2.92585 18.3495 3.09368 18.2376 3.26151 18.1257C3.8769 17.846 4.66012 17.902 4.772 17.9579C4.93984 17.9579 5.10767 17.9579 5.2755 17.9579C6.11466 17.9579 6.89788 18.0139 7.73704 18.1257C8.24053 18.1817 8.74403 17.7901 8.96781 17.2866C8.96781 17.2306 9.02375 17.2306 9.02375 17.1747C9.0797 17.0628 9.0797 16.895 9.0797 16.7831C9.02375 15.9999 8.52026 15.4964 7.73704 15.4404C6.22655 15.3285 4.66012 15.1607 3.14963 15.4404C2.14263 15.6083 1.24753 16.1118 0.632143 17.0069C-0.318906 18.4055 -0.0951293 20.0278 0.632143 21.4264C1.52725 23.1048 3.03774 24.5034 4.49228 25.6782C5.66711 26.6292 6.95382 27.5243 8.24053 28.3635C8.29648 28.3635 8.35242 28.4195 8.35242 28.4754C8.63214 28.6432 8.91186 28.8111 9.19158 28.9789C9.4713 29.1467 9.69508 29.3146 9.9748 29.4824C10.1986 29.5943 10.3664 29.7062 10.5902 29.8181C10.758 29.9299 10.9259 30.0418 11.0937 30.0978C11.2615 30.1537 11.3734 30.2656 11.5412 30.3216C13.779 31.6083 16.0727 32.7271 18.4224 33.7901C18.5342 33.846 18.6461 33.902 18.814 33.9579C18.8699 34.909 19.3175 35.7481 20.0447 36.3076C20.6042 36.7551 21.2755 37.0348 22.0587 37.0348C22.8419 37.0348 23.5692 36.7551 24.1286 36.2516C24.1846 36.2516 24.2405 36.3076 24.2405 36.3076C24.5203 36.4195 24.8559 36.5313 25.1356 36.6432C25.9189 36.9789 26.758 37.2586 27.5412 37.5943V37.6502V37.5943C29.2755 38.2656 31.0098 38.881 32.8 39.4404C33.3035 39.6083 33.807 39.7761 34.3105 39.9439C35.2615 40.2236 36.2126 40.5034 37.1636 40.7831C37.2755 40.839 37.4433 40.839 37.5552 40.895C37.8349 40.9509 38.1706 41.0628 38.4503 41.1188C38.5622 41.1747 38.6741 41.1747 38.786 41.2306C39.1217 41.2866 39.4014 41.3985 39.737 41.4544C39.8489 41.4544 39.9608 41.5104 40.0727 41.5104C40.8 41.6782 41.4713 41.846 42.1986 41.9579C42.8699 42.0698 43.5412 42.2376 44.2126 42.3495C44.3804 42.4055 44.6042 42.4055 44.772 42.4614C46.3384 42.6852 47.9049 42.853 49.4154 42.7411C49.5273 42.7411 49.6391 42.7411 49.751 42.7411C50.5342 42.6852 51.3734 42.5733 52.1566 42.2936C52.828 42.0698 53.4433 41.6782 53.8909 41.1188C54.73 40.3355 55.0098 39.3285 54.8979 38.2656Z" fill="#6075B7"/>
<path d="M8.40836 42.4054C7.68109 42.6292 7.12165 43.1327 6.78599 43.86C6.45032 44.5313 6.39438 45.3145 6.61815 46.0418C7.00976 47.2166 8.12864 47.9998 9.30347 47.9998C9.58319 47.9998 9.91885 47.9439 10.1986 47.832C10.9258 47.6082 11.4853 47.1047 11.821 46.3774C12.1566 45.7061 12.2126 44.9229 11.9888 44.1956C11.4853 42.6851 9.86291 41.9019 8.40836 42.4054ZM10.6461 45.7621C10.4783 46.1537 10.1426 46.3775 9.75102 46.5453C8.9678 46.825 8.0727 46.3775 7.84892 45.5942C7.5692 44.811 8.01675 43.9159 8.79997 43.6362C8.9678 43.5802 9.13564 43.5802 9.30347 43.5802C9.91885 43.5802 10.5342 43.9719 10.758 44.6432C10.8699 44.9788 10.8699 45.4264 10.6461 45.7621Z" fill="#6075B7"/>
<path d="M151.513 12.4753C151.793 12.4753 151.905 12.5872 151.905 12.867V31.4963C151.905 31.8879 151.737 32.1117 151.345 32.1677C149.276 32.5033 147.373 32.6711 145.639 32.6711C142.898 32.6711 141.108 32.1677 140.268 31.2166C139.373 30.2096 138.926 28.2516 138.926 25.3425C138.926 22.4334 139.317 20.4753 140.101 19.4683C140.884 18.4614 142.506 17.9579 144.856 17.9579C146.031 17.9579 147.094 18.0138 148.045 18.1257V12.9788C148.045 12.6991 148.157 12.5872 148.436 12.5872H151.513V12.4753ZM148.045 21.2586H145.695C144.408 21.2586 143.569 21.5383 143.234 21.9858C142.898 22.4893 142.73 23.5523 142.73 25.2865C142.73 26.9089 142.898 28.0278 143.178 28.5313C143.513 29.0907 144.296 29.3145 145.527 29.3145C146.478 29.3145 147.317 29.2586 147.989 29.1467V21.2586H148.045Z" fill="white"/>
<path d="M159.122 13.9859C159.122 15.3286 158.338 16.1118 156.884 16.1118C155.429 16.1118 154.59 15.3286 154.59 13.9859C154.59 12.6433 155.429 11.916 156.884 11.916C158.338 11.916 159.122 12.6433 159.122 13.9859ZM158.394 18.0139C158.674 18.0139 158.786 18.1258 158.786 18.4055V32.1118C158.786 32.3915 158.674 32.5034 158.394 32.5034H155.317C155.038 32.5034 154.926 32.3915 154.926 32.1118V18.4055C154.926 18.1258 155.038 18.0139 155.317 18.0139H158.394Z" fill="white"/>
<path d="M173.947 18.4057C174.282 18.4616 174.506 18.6854 174.506 19.077V32.2798C174.506 33.9581 174.394 34.9651 173.835 35.9162C173.164 37.3148 171.429 37.9301 168.129 37.9301C166.338 37.9301 164.716 37.8183 163.317 37.5945C163.094 37.5945 162.982 37.4266 162.982 37.2029V35.2448C162.982 34.9651 163.094 34.8532 163.317 34.8532H167.793C170.031 34.8532 170.646 34.3497 170.646 32.6155V32.4476C169.639 32.6155 168.576 32.7273 167.457 32.7273C165.108 32.7273 163.541 32.2238 162.702 31.1609C161.919 30.098 161.471 28.084 161.471 25.119C161.471 22.2658 161.919 20.3637 162.814 19.4127C163.709 18.4616 165.499 17.9581 168.241 17.9581C170.255 17.9022 172.157 18.07 173.947 18.4057ZM170.59 21.2029H168.073C166.898 21.2029 166.115 21.4826 165.779 21.9861C165.443 22.5455 165.331 23.6085 165.331 25.2308C165.331 26.9092 165.499 28.028 165.835 28.5315C166.171 29.035 167.01 29.2588 168.296 29.2588C169.248 29.2588 170.031 29.2029 170.59 29.091V21.2029Z" fill="white"/>
<path d="M181.723 13.9859C181.723 15.3286 180.94 16.1118 179.485 16.1118C178.031 16.1118 177.192 15.3286 177.192 13.9859C177.192 12.6433 178.031 11.916 179.485 11.916C180.94 11.916 181.723 12.6433 181.723 13.9859ZM180.996 18.0139C181.276 18.0139 181.387 18.1258 181.387 18.4055V32.1118C181.387 32.3915 181.276 32.5034 180.996 32.5034H177.919C177.639 32.5034 177.527 32.3915 177.527 32.1118V18.4055C177.527 18.1258 177.639 18.0139 177.919 18.0139H180.996Z" fill="white"/>
<path d="M188.828 13.9859C189.108 13.93 189.22 14.0418 189.22 14.3775V18.0698H191.625C191.905 18.0698 192.073 18.1817 192.073 18.4614V20.5314C192.073 20.8111 191.905 20.923 191.625 20.923H189.22V27.9719C189.22 29.0349 189.555 29.3146 190.73 29.3146H191.793C192.073 29.3146 192.241 29.4265 192.241 29.7062V31.888C192.241 32.1677 192.129 32.3356 191.849 32.3915C191.066 32.5593 190.338 32.6153 189.667 32.6153C188.548 32.6153 188.101 32.6153 187.206 32.3915C185.975 32.0558 185.471 31.2726 185.415 29.2586V20.867H183.905C183.625 20.867 183.513 20.7551 183.513 20.4754V18.4055C183.513 18.1258 183.625 18.0139 183.905 18.0139H185.415V15.2167C185.415 14.9929 185.527 14.881 185.751 14.8251L188.828 13.9859Z" fill="white"/>
<path d="M204.66 18.9649C205.555 19.6921 206.003 20.811 206.003 22.3215V31.2726C206.003 31.6642 205.835 31.9439 205.443 32.0558C203.877 32.3914 201.919 32.6152 199.569 32.6152C197.387 32.6152 196.324 32.5033 195.15 31.8879C194.031 31.2726 193.583 30.0977 193.583 28.0837C193.583 26.4054 194.031 25.2865 194.87 24.7271C195.709 24.1117 197.052 23.832 198.898 23.832H202.199V22.8809C202.199 21.7061 201.415 21.0907 199.737 21.0907H195.038C194.758 21.0907 194.702 21.0348 194.702 20.6991V18.5733C194.702 18.2935 194.758 18.2376 195.038 18.1816C196.38 17.9019 197.891 17.79 199.737 17.79C202.143 17.9019 203.821 18.2376 204.66 18.9649ZM202.143 26.4054H199.178C197.835 26.4054 197.387 26.797 197.387 27.9719C197.387 29.2026 197.947 29.5383 199.569 29.5383C200.688 29.5383 201.527 29.4823 202.143 29.2586V26.4054Z" fill="white"/>
<path d="M212.436 12.4753C212.716 12.4753 212.828 12.5872 212.828 12.867V32.1117C212.828 32.3914 212.716 32.5033 212.436 32.5033H209.359C209.08 32.5033 208.968 32.3914 208.968 32.1117V12.867C208.968 12.5872 209.08 12.4753 209.359 12.4753H212.436Z" fill="white"/>
<path fill-rule="evenodd" clip-rule="evenodd" d="M65.9748 21.5383H73.5272C75.5972 21.5383 77.3314 23.2166 77.3314 25.3425C77.3314 27.4124 75.6531 29.1467 73.5272 29.1467C71.4573 29.1467 69.7231 27.4124 69.7231 25.3425V22.9369H65.9189V25.3425C65.9189 29.5383 69.3314 32.8949 73.4713 32.8949C77.6112 32.8949 81.0237 29.4823 81.0237 25.3425C81.0237 21.2026 77.6112 17.79 73.4713 17.79H69.6671V12.0837H65.8629V21.5383H65.9748ZM124.828 17.7341C129.024 17.7341 132.38 21.1467 132.38 25.2865C132.38 29.4823 128.968 32.839 124.828 32.839C120.632 32.839 117.275 29.4264 117.275 25.2865C117.22 21.1467 120.632 17.7341 124.828 17.7341ZM124.828 21.5383C126.898 21.5383 128.632 23.2166 128.632 25.3425C128.632 27.4124 126.954 29.1467 124.828 29.1467C122.758 29.1467 121.024 27.4684 121.024 25.3425C121.024 23.2166 122.702 21.5383 124.828 21.5383ZM85.4433 26.3495H96.5762C96.6321 26.0138 96.6321 25.6222 96.6321 25.2865C96.6321 21.0907 93.2196 17.7341 89.0797 17.7341C84.9398 17.7341 81.5273 21.0907 81.5273 25.2865C81.5273 29.4823 84.9398 32.8949 89.0797 32.8949C92.5482 32.8949 95.5692 30.4893 96.4084 27.3005H92.3245C91.6531 28.3635 90.4224 29.1467 89.0238 29.1467C87.3454 29.0907 85.8909 27.9159 85.4433 26.3495H96.5762H85.4433ZM92.5482 23.8879C91.9328 22.5453 90.5902 21.5383 89.0238 21.5383C87.4573 21.5383 86.1147 22.4893 85.5552 23.8879H92.5482ZM96.4084 27.3005H92.3245H96.4084ZM100.996 23.7201C100.996 22.6012 101.947 21.6502 103.066 21.6502C104.185 21.6502 105.136 22.6012 105.136 23.6642V32.6152H108.94V23.5523C108.94 22.4334 109.891 21.4823 111.01 21.4823C112.129 21.4823 113.08 22.4334 113.08 23.5523V32.5593H116.884V23.5523C116.884 20.3075 114.255 17.7341 111.066 17.7341C109.723 17.7341 108.436 18.2376 107.429 19.0208C106.59 18.2376 105.415 17.7341 104.129 17.7341C103.01 17.7341 101.947 18.1257 101.108 18.797V18.1257H97.3035V32.6152H101.108V23.7201H100.996ZM136.688 32.6152H132.884V12.0837H136.688V32.6152Z" fill="#6075B7"/>
</svg>
